<svg version="1.1" id="Layer_1" xmlns="http://www.w3.org/2000/svg" xmlns:xlink="http://www.w3.org/1999/xlink" x="0px" y="0px"
	 width="100%" viewBox="0 0 500 500" enable-background="new 0 0 500 500" xml:space="preserve">
<path fill="#FFFFFF" opacity="1.000000" stroke="none" 
	d="
M318.000000,501.000000 
	C212.000031,501.000000 106.500053,501.000000 1.000057,501.000000 
	C1.000038,334.333405 1.000038,167.666794 1.000019,1.000146 
	C167.666565,1.000097 334.333130,1.000097 500.999756,1.000049 
	C500.999847,167.666519 500.999847,334.333038 500.999939,500.999786 
	C440.166656,501.000000 379.333344,501.000000 318.000000,501.000000 
M460.730621,89.243774 
	C394.348022,132.543137 327.965393,175.842499 260.813965,219.643356 
	C260.813965,173.593887 260.813965,128.461517 260.813965,82.692268 
	C174.491165,138.986237 88.811378,194.860886 2.715709,251.006729 
	C89.094917,307.335083 174.818222,363.235718 261.174316,419.548981 
	C261.174316,373.490906 261.174316,328.414337 261.174316,282.603729 
	C331.310669,328.334808 400.927979,373.727417 470.839752,419.312042 
	C470.839752,306.749847 470.839752,195.031219 470.839752,82.686615 
	C467.375610,84.940155 464.360107,86.901833 460.730621,89.243774 
z"/>
<path fill="#010101" opacity="1.000000" stroke="none" 
	d="
M461.037598,89.053650 
	C464.360107,86.901833 467.375610,84.940155 470.839752,82.686615 
	C470.839752,195.031219 470.839752,306.749847 470.839752,419.312042 
	C400.927979,373.727417 331.310669,328.334808 261.174316,282.603729 
	C261.174316,328.414337 261.174316,373.490906 261.174316,419.548981 
	C174.818222,363.235718 89.094917,307.335083 2.715709,251.006729 
	C88.811378,194.860886 174.491165,138.986237 260.813965,82.692268 
	C260.813965,128.461517 260.813965,173.593887 260.813965,219.643356 
	C327.965393,175.842499 394.348022,132.543137 461.037598,89.053650 
z"/>
</svg>